<svg width="44" height="44" viewBox="0 0 44 44" fill="none" xmlns="http://www.w3.org/2000/svg">
<g filter="url(#filter0_d_373_1181)">
<rect x="2" y="1" width="40" height="40" rx="20" fill="#EA6C00" shape-rendering="crispEdges"/>
<path d="M28.9654 14.4128C28.4082 13.8556 27.5724 13.7163 26.8759 13.9949C26.8759 13.577 26.7366 13.1591 26.3187 12.7412C26.0401 12.4626 25.4829 12.184 24.7864 12.184C24.3685 12.184 24.0899 12.3233 23.8113 12.3233C23.8113 12.0447 23.672 11.9054 23.5327 11.6268C22.8362 10.7911 21.4432 10.7911 20.7467 11.6268C20.4681 11.9054 20.1895 12.184 20.1895 12.4626C19.9109 12.4626 19.6323 12.3233 19.3537 12.3233C18.6573 12.3233 18.2394 12.6019 17.8215 13.0198C17.125 13.7163 17.125 14.8307 17.125 14.8307V20.1241C16.7071 19.7062 16.0106 19.0097 15.0355 19.0097C14.7569 19.0097 14.339 19.149 14.0604 19.2883C13.5032 19.5669 13.2246 19.9848 13.0853 20.542C12.6674 21.935 13.9211 23.8852 13.9211 24.0245C14.0604 24.1638 15.5927 27.7856 16.9857 29.3178C18.3787 30.9894 19.9109 31.9645 23.8113 31.9645C27.851 31.9645 29.6619 29.7357 29.6619 24.8603V17.1988C29.6619 17.0595 29.8012 15.3879 28.9654 14.4128ZM21.3039 13.8556C21.3039 13.4377 21.1646 12.4626 22.0004 12.4626C22.6969 12.4626 22.6969 13.1591 22.6969 13.8556V19.4276C22.6969 19.8455 22.9755 20.1241 23.3934 20.1241C23.8113 20.1241 24.0899 19.8455 24.0899 19.4276V14.1342C24.0899 14.1342 24.0899 13.577 24.7864 13.577C25.6222 13.577 25.4829 14.8307 25.4829 14.8307V19.4276C25.4829 19.8455 25.7615 20.1241 26.1794 20.1241C26.5973 20.1241 26.8759 19.8455 26.8759 19.4276V16.0844C26.8759 15.9451 26.8759 15.2486 27.5724 15.2486C28.2689 15.2486 28.2689 16.6416 28.2689 16.6416V24.8603C28.2689 29.5964 26.458 30.5715 23.8113 30.5715C20.4681 30.5715 19.2144 29.875 18.1001 28.3427C16.8464 26.9498 15.1748 23.328 15.1748 23.1887C14.7569 22.7708 14.1997 21.5171 14.339 20.9599C14.339 20.8206 14.4783 20.6813 14.6176 20.542C14.7569 20.542 14.8962 20.4027 14.8962 20.4027C15.4534 20.4027 16.0106 21.0992 16.1499 21.3778L16.9857 22.6315C17.125 22.9101 17.5429 23.0494 17.8215 22.9101C18.3787 22.9101 18.518 22.6315 18.518 22.3529V15.1093C18.518 14.5521 18.518 13.7163 19.2144 13.7163C19.7716 13.7163 19.9109 14.1342 19.9109 14.8307V19.4276C19.9109 19.8455 20.1895 20.1241 20.6074 20.1241C21.0253 20.1241 21.3039 19.8455 21.3039 19.4276V13.8556Z" fill="white"/>
</g>
<defs>
<filter id="filter0_d_373_1181" x="0" y="0" width="44" height="44" filterUnits="userSpaceOnUse" color-interpolation-filters="sRGB">
<feFlood flood-opacity="0" result="BackgroundImageFix"/>
<feColorMatrix in="SourceAlpha" type="matrix" values="0 0 0 0 0 0 0 0 0 0 0 0 0 0 0 0 0 0 127 0" result="hardAlpha"/>
<feOffset dy="1"/>
<feGaussianBlur stdDeviation="1"/>
<feComposite in2="hardAlpha" operator="out"/>
<feColorMatrix type="matrix" values="0 0 0 0 0 0 0 0 0 0 0 0 0 0 0 0 0 0 0.12 0"/>
<feBlend mode="normal" in2="BackgroundImageFix" result="effect1_dropShadow_373_1181"/>
<feBlend mode="normal" in="SourceGraphic" in2="effect1_dropShadow_373_1181" result="shape"/>
</filter>
</defs>
</svg>
