<svg width="54" height="54" viewBox="0 0 54 54" fill="none" xmlns="http://www.w3.org/2000/svg">
<g filter="url(#filter0_d_3_5278)">
<rect x="2" y="1" width="50" height="50" rx="25" fill="#05B1A1" shape-rendering="crispEdges"/>
<path d="M36.9739 13.5H17.0261C16.3557 13.5013 15.7132 13.7687 15.2396 14.2435C14.766 14.7183 14.5 15.3617 14.5 16.0325V35.9724C14.5 36.6428 14.7661 37.2857 15.2399 37.7597C15.7136 38.2337 16.3561 38.5 17.0261 38.5H36.9739C37.6439 38.5 38.2864 38.2337 38.7601 37.7597C39.2339 37.2857 39.5 36.6428 39.5 35.9724V16.0325C39.5 15.3617 39.234 14.7183 38.7604 14.2435C38.2868 13.7687 37.6443 13.5013 36.9739 13.5ZM34.0834 14.8549H36.3141V17.619L35.2012 16.8455L34.0834 17.619V14.8549ZM38.3773 35.9724C38.376 36.3444 38.2277 36.7008 37.9648 36.9639C37.7019 37.227 37.3457 37.3753 36.9739 37.3766H17.0261C16.6543 37.3753 16.2981 37.227 16.0352 36.9639C15.7723 36.7008 15.624 36.3444 15.6227 35.9724V16.0325C15.6227 15.6596 15.7704 15.3019 16.0335 15.0378C16.2965 14.7737 16.6534 14.6247 17.0261 14.6234H33.3448V19.0331L35.2012 17.7718L37.0527 19.0577V14.6579C37.4106 14.6768 37.7476 14.8325 37.9941 15.0929C38.2406 15.3533 38.3778 15.6985 38.3773 16.0572V35.9724Z" fill="white"/>
<path d="M35.5754 34.0016V34.4943C35.5535 34.6334 35.4788 34.7586 35.3669 34.8439C35.255 34.9293 35.1145 34.9682 34.9747 34.9525H19.0401C18.9003 34.9682 18.7598 34.9293 18.6479 34.8439C18.536 34.7586 18.4613 34.6334 18.4393 34.4943V34.0016C18.4613 33.8625 18.536 33.7373 18.6479 33.6519C18.7598 33.5666 18.9003 33.5277 19.0401 33.5434H34.9747C35.1145 33.5277 35.255 33.5666 35.3669 33.6519C35.4788 33.7373 35.5535 33.8625 35.5754 34.0016Z" fill="white"/>
<path d="M32.7538 30.1141V30.6068C32.7606 30.7216 32.7221 30.8344 32.6466 30.921C32.571 31.0076 32.4645 31.0611 32.35 31.07H21.6646C21.55 31.0611 21.4435 31.0076 21.368 30.921C21.2925 30.8344 21.254 30.7216 21.2608 30.6068V30.1141C21.254 29.9994 21.2925 29.8865 21.368 29.7999C21.4435 29.7133 21.55 29.6598 21.6646 29.651H32.35C32.4645 29.6598 32.571 29.7133 32.6466 29.7999C32.7221 29.8865 32.7606 29.9994 32.7538 30.1141Z" fill="white"/>
<path d="M31.8478 22.0534C31.9955 21.9103 32.1 21.7286 32.1495 21.5289C32.1991 21.3293 32.1916 21.1197 32.128 20.9241C32.0644 20.7285 31.9471 20.5547 31.7897 20.4225C31.6322 20.2903 31.4407 20.2049 31.2372 20.1762L29.0558 19.8559C29.0377 19.8528 29.0206 19.8454 29.006 19.8342C28.9914 19.8231 28.9798 19.8085 28.9721 19.7919L27.9872 17.821C27.8966 17.6371 27.7563 17.4823 27.5822 17.374C27.4082 17.2657 27.2073 17.2083 27.0024 17.2083C26.7974 17.2083 26.5966 17.2657 26.4225 17.374C26.2485 17.4823 26.1082 17.6371 26.0176 17.821L25.0327 19.7919C25.025 19.8085 25.0134 19.8231 24.9988 19.8342C24.9842 19.8454 24.9671 19.8528 24.949 19.8559L22.7676 20.1762C22.564 20.2049 22.3726 20.2903 22.2151 20.4225C22.0576 20.5547 21.9404 20.7285 21.8768 20.9241C21.8132 21.1197 21.8057 21.3293 21.8552 21.5289C21.9048 21.7286 22.0093 21.9103 22.157 22.0534L23.7327 23.5906C23.7464 23.6039 23.7566 23.6202 23.7626 23.6382C23.7686 23.6562 23.7702 23.6754 23.7672 23.6941L23.4274 25.867C23.3927 26.0698 23.4153 26.2784 23.4927 26.469C23.5702 26.6597 23.6994 26.8249 23.8657 26.946C24.032 27.0676 24.2292 27.14 24.4347 27.1548C24.6402 27.1696 24.8458 27.1263 25.0278 27.0297L26.9975 26.0049C27.0139 25.9954 27.0326 25.9904 27.0516 25.9904C27.0707 25.9904 27.0893 25.9954 27.1058 26.0049L29.0755 27.0297C29.2576 27.1255 29.4628 27.1684 29.668 27.1535C29.8732 27.1387 30.0702 27.0668 30.2367 26.9458C30.4031 26.8249 30.5325 26.6597 30.6101 26.4691C30.6877 26.2784 30.7105 26.0699 30.6758 25.867L30.2376 23.6843C30.2346 23.6655 30.2362 23.6463 30.2422 23.6283C30.2482 23.6103 30.2584 23.594 30.272 23.5808L31.8478 22.0534ZM29.5827 22.8861C29.4526 23.0113 29.3557 23.1669 29.3006 23.3389C29.2456 23.511 29.2342 23.694 29.2675 23.8715L29.6368 26.0443C29.641 26.0655 29.639 26.0874 29.6312 26.1074C29.6233 26.1275 29.6099 26.1449 29.5925 26.1577C29.5742 26.1695 29.5528 26.1759 29.531 26.1759C29.5091 26.1759 29.4877 26.1695 29.4694 26.1577L27.4997 25.1328C27.3424 25.0479 27.1664 25.0034 26.9876 25.0034C26.8088 25.0034 26.6329 25.0479 26.4755 25.1328L24.5058 26.1577C24.4875 26.1695 24.4661 26.1759 24.4443 26.1759C24.4224 26.1759 24.4011 26.1695 24.3827 26.1577C24.3653 26.1449 24.3519 26.1275 24.3441 26.1074C24.3362 26.0874 24.3343 26.0655 24.3384 26.0443L24.7077 23.8715C24.741 23.694 24.7296 23.511 24.6746 23.3389C24.6196 23.1669 24.5227 23.0113 24.3926 22.8861L22.8119 21.3488C22.8001 21.3305 22.7937 21.3091 22.7937 21.2872C22.7937 21.2654 22.8001 21.244 22.8119 21.2257C22.8183 21.2049 22.8306 21.1865 22.8472 21.1725C22.8637 21.1585 22.884 21.1496 22.9055 21.1468L25.0869 20.8315C25.2649 20.8075 25.4345 20.7407 25.5811 20.6369C25.7277 20.5331 25.8471 20.3953 25.9289 20.2353L26.9138 18.2645C26.9227 18.2445 26.9372 18.2275 26.9555 18.2156C26.9739 18.2037 26.9953 18.1974 27.0172 18.1974C27.039 18.1974 27.0604 18.2037 27.0788 18.2156C27.0971 18.2275 27.1117 18.2445 27.1206 18.2645L28.1054 20.2353C28.1857 20.395 28.3033 20.533 28.4481 20.6376C28.593 20.7422 28.7608 20.8104 28.9376 20.8364L31.119 21.1517C31.1396 21.1554 31.1588 21.1647 31.1744 21.1786C31.1901 21.1925 31.2016 21.2105 31.2076 21.2306C31.2161 21.2513 31.2183 21.274 31.2139 21.2959C31.2096 21.3178 31.1988 21.3379 31.183 21.3538L29.5827 22.8861Z" fill="white"/>
</g>
<defs>
<filter id="filter0_d_3_5278" x="0" y="0" width="54" height="54" filterUnits="userSpaceOnUse" color-interpolation-filters="sRGB">
<feFlood flood-opacity="0" result="BackgroundImageFix"/>
<feColorMatrix in="SourceAlpha" type="matrix" values="0 0 0 0 0 0 0 0 0 0 0 0 0 0 0 0 0 0 127 0" result="hardAlpha"/>
<feOffset dy="1"/>
<feGaussianBlur stdDeviation="1"/>
<feComposite in2="hardAlpha" operator="out"/>
<feColorMatrix type="matrix" values="0 0 0 0 0 0 0 0 0 0 0 0 0 0 0 0 0 0 0.12 0"/>
<feBlend mode="normal" in2="BackgroundImageFix" result="effect1_dropShadow_3_5278"/>
<feBlend mode="normal" in="SourceGraphic" in2="effect1_dropShadow_3_5278" result="shape"/>
</filter>
</defs>
</svg>
