<svg width="54" height="54" viewBox="0 0 54 54" fill="none" xmlns="http://www.w3.org/2000/svg">
<g filter="url(#filter0_d_3_5284)">
<rect x="2" y="1" width="50" height="50" rx="25" fill="#05B1A1" shape-rendering="crispEdges"/>
<path d="M33.6358 24.1823H33.1918C32.7266 24.1853 32.2683 24.291 31.8522 24.4914C31.4362 24.6917 31.0734 24.9814 30.7918 25.338C30.5507 24.6353 30.0868 24.0231 29.4653 23.5877C28.8439 23.1523 28.0963 22.9156 27.3278 22.9111H26.7718C25.9871 22.9118 25.2235 23.1562 24.5945 23.6079C23.9654 24.0597 23.5044 24.6948 23.2798 25.4189C23.0036 25.0335 22.6343 24.7186 22.2037 24.5011C21.7731 24.2837 21.294 24.1703 20.8078 24.1708H20.3638C19.566 24.1718 18.8011 24.4772 18.2366 25.0202C17.6721 25.5631 17.3539 26.2994 17.3518 27.0677V30.4H36.6478V27.0677C36.6425 26.3014 36.323 25.5681 35.7588 25.0276C35.1946 24.4872 34.4316 24.1833 33.6358 24.1823V24.1823ZM18.0478 29.7644V27.0677C18.0489 26.4765 18.2932 25.9097 18.7273 25.4917C19.1614 25.0736 19.7499 24.8383 20.3638 24.8372H20.8078C21.4224 24.8372 22.0119 25.0721 22.4469 25.4903C22.8819 25.9085 23.1267 26.4758 23.1278 27.0677V29.7644H18.0478ZM23.9118 29.7258V26.4475C23.9129 25.7173 24.2145 25.0173 24.7507 24.501C25.2868 23.9846 26.0136 23.6941 26.7718 23.6931H27.3158C28.0747 23.6931 28.8026 23.9832 29.3395 24.4996C29.8765 25.0161 30.1787 25.7166 30.1798 26.4475V29.7258H23.9118ZM30.9518 29.7644V26.4899C31.0872 26.0197 31.3787 25.6051 31.7817 25.3095C32.1847 25.0139 32.6772 24.8534 33.1838 24.8526H33.6278C34.2404 24.8516 34.8285 25.0839 35.2638 25.4989C35.6992 25.9139 35.9465 26.4778 35.9518 27.0677V29.7644H30.9518Z" fill="white"/>
<path d="M27.0439 15.92C26.3958 15.92 25.7621 16.1051 25.2228 16.4521C24.6834 16.7992 24.2626 17.2928 24.014 17.8709C23.7653 18.449 23.7002 19.0853 23.827 19.6993C23.9538 20.3132 24.2667 20.8767 24.7256 21.3187C25.1845 21.7606 25.7688 22.0613 26.4045 22.1831C27.0402 22.3049 27.6991 22.2424 28.2981 22.0034C28.8971 21.7645 29.4095 21.3597 29.7703 20.8397C30.1311 20.3196 30.3239 19.7079 30.3239 19.0819C30.3239 18.2423 29.9775 17.4378 29.3621 16.845C28.7468 16.2524 27.9128 15.92 27.0439 15.92ZM27.0439 21.6484C26.5179 21.6484 26.004 21.4982 25.5671 21.2171C25.1303 20.936 24.7903 20.5367 24.5896 20.0702C24.389 19.6037 24.3366 19.0906 24.4388 18.5955C24.541 18.1005 24.7935 17.6454 25.1647 17.2878C25.536 16.9303 26.0094 16.6864 26.5252 16.5876C27.041 16.4888 27.5756 16.5396 28.0613 16.7333C28.5469 16.9271 28.9616 17.255 29.253 17.6751C29.5445 18.0952 29.6999 18.5888 29.6999 19.0934C29.6999 19.7701 29.4208 20.4196 28.923 20.899C28.4251 21.3785 27.7492 21.6484 27.0439 21.6484Z" fill="white" stroke="white" stroke-width="0.16"/>
<path d="M20.6758 18.4394C20.1401 18.4394 19.6162 18.5924 19.1703 18.8794C18.7243 19.1663 18.3763 19.5745 18.1707 20.0526C17.965 20.5308 17.9112 21.0571 18.0161 21.565C18.1209 22.0728 18.3797 22.5388 18.7592 22.9043C19.1387 23.2697 19.6218 23.5183 20.1473 23.619C20.6728 23.7196 21.2175 23.668 21.7127 23.4705C22.2079 23.2729 22.6316 22.9382 22.93 22.5082C23.2284 22.0781 23.3878 21.5721 23.3878 21.0543C23.3878 20.3598 23.1013 19.6944 22.5924 19.2043C22.0836 18.7142 21.3941 18.4394 20.6758 18.4394ZM20.6757 23.1354C20.2471 23.1354 19.8283 23.013 19.4724 22.7839C19.1165 22.5549 18.8395 22.2297 18.6761 21.8497C18.5127 21.4698 18.47 21.0519 18.5533 20.6488C18.6365 20.2457 18.8421 19.875 19.1446 19.5837C19.447 19.2924 19.8327 19.0937 20.2531 19.0132C20.6734 18.9327 21.1091 18.974 21.5049 19.1319C21.9007 19.2898 22.2385 19.557 22.4759 19.8992C22.7133 20.2413 22.8398 20.6433 22.8398 21.0541C22.8388 21.6048 22.6112 22.1333 22.2059 22.5237C21.8005 22.9141 21.2503 23.1344 20.6757 23.1354Z" fill="white" stroke="white" stroke-width="0.16"/>
<path d="M33.3241 18.4394L33.324 18.4394C32.7881 18.4387 32.2638 18.591 31.8173 18.8774C31.3708 19.1639 31.0222 19.5718 30.8159 20.0499C30.6096 20.528 30.5552 21.0544 30.6596 21.5625C30.764 22.0706 31.0225 22.537 31.4018 22.9029C31.7811 23.2687 32.2642 23.5177 32.7898 23.6187C33.3154 23.7197 33.8604 23.6683 34.3558 23.4708C34.8512 23.2734 35.2752 22.9387 35.5737 22.5086C35.8723 22.0784 36.0319 21.5723 36.0319 21.0543V21.0542C36.0308 20.3607 35.7445 19.6965 35.2368 19.2068C34.7291 18.7171 34.0413 18.4415 33.3241 18.4394ZM33.3237 23.1354C32.8951 23.1354 32.4764 23.013 32.1205 22.7839C31.7645 22.5549 31.4876 22.2297 31.3242 21.8497C31.1608 21.4698 31.1181 21.0519 31.2013 20.6488C31.2846 20.2457 31.4902 19.875 31.7926 19.5837C32.0951 19.2924 32.4808 19.0937 32.9011 19.0132C33.3215 18.9327 33.7572 18.974 34.153 19.1319C34.5487 19.2898 34.8865 19.557 35.124 19.8992C35.3613 20.2413 35.4878 20.6433 35.4879 21.0541C35.4869 21.6048 35.2593 22.1333 34.854 22.5237C34.4485 22.9141 33.8983 23.1344 33.3237 23.1354Z" fill="white" stroke="white" stroke-width="0.16"/>
<path d="M34.2034 31.2H19.7966C19.0549 31.2 18.3436 31.4529 17.8191 31.903C17.2946 32.353 17 32.9635 17 33.6C17 34.2365 17.2946 34.847 17.8191 35.2971C18.3436 35.7472 19.0549 36 19.7966 36H34.2034C34.9451 36 35.6564 35.7472 36.1809 35.2971C36.7054 34.847 37 34.2365 37 33.6C37 32.9635 36.7054 32.353 36.1809 31.903C35.6564 31.4529 34.9451 31.2 34.2034 31.2ZM34.2034 35.4119H30.4759V31.7881H34.2034C34.7634 31.7881 35.3004 31.979 35.6963 32.3188C36.0923 32.6586 36.3147 33.1195 36.3147 33.6C36.3147 34.0806 36.0923 34.5414 35.6963 34.8812C35.3004 35.221 34.7634 35.4119 34.2034 35.4119Z" fill="white"/>
</g>
<defs>
<filter id="filter0_d_3_5284" x="0" y="0" width="54" height="54" filterUnits="userSpaceOnUse" color-interpolation-filters="sRGB">
<feFlood flood-opacity="0" result="BackgroundImageFix"/>
<feColorMatrix in="SourceAlpha" type="matrix" values="0 0 0 0 0 0 0 0 0 0 0 0 0 0 0 0 0 0 127 0" result="hardAlpha"/>
<feOffset dy="1"/>
<feGaussianBlur stdDeviation="1"/>
<feComposite in2="hardAlpha" operator="out"/>
<feColorMatrix type="matrix" values="0 0 0 0 0 0 0 0 0 0 0 0 0 0 0 0 0 0 0.12 0"/>
<feBlend mode="normal" in2="BackgroundImageFix" result="effect1_dropShadow_3_5284"/>
<feBlend mode="normal" in="SourceGraphic" in2="effect1_dropShadow_3_5284" result="shape"/>
</filter>
</defs>
</svg>
