<svg width="54" height="54" viewBox="0 0 54 54" fill="none" xmlns="http://www.w3.org/2000/svg">
<g filter="url(#filter0_d_3_5272)">
<rect x="2" y="1" width="50" height="50" rx="25" fill="#05B1A1" shape-rendering="crispEdges"/>
<path fill-rule="evenodd" clip-rule="evenodd" d="M18.6406 35.5828L20.3658 33.7949L18.6406 35.5828ZM33.9794 19.6794L36.2693 17.3268L33.9794 19.6794Z" fill="white"/>
<path d="M33.9794 19.6794L36.2693 17.3268M18.6406 35.5828L20.3658 33.7949L18.6406 35.5828Z" stroke="white" stroke-width="0.931153" stroke-linecap="round" stroke-linejoin="round"/>
<path d="M27.0151 16.9191L26.9524 13.5" stroke="white" stroke-width="0.931153" stroke-linecap="round" stroke-linejoin="round"/>
<path fill-rule="evenodd" clip-rule="evenodd" d="M35.7358 35.5828L33.9792 33.7949L35.7358 35.5828ZM20.3657 19.6794L18.1072 17.3268L20.3657 19.6794Z" fill="white"/>
<path d="M20.3657 19.6794L18.1072 17.3268M35.7358 35.5828L33.9792 33.7949L35.7358 35.5828Z" stroke="white" stroke-width="0.931153" stroke-linecap="round" stroke-linejoin="round"/>
<path d="M36.9906 26.7372H39.8451M14.5 26.7372H17.3545H14.5Z" stroke="white" stroke-width="0.931153" stroke-linecap="round" stroke-linejoin="round"/>
<path fill-rule="evenodd" clip-rule="evenodd" d="M30.1524 33.8262V38.5H24.1926V33.8262C21.4322 32.6656 19.4561 29.9366 19.4561 26.7371C19.4561 22.4711 22.9065 19.0206 27.1725 19.0206C31.4385 19.0206 34.889 22.4711 34.889 26.7371C34.889 29.9366 32.9442 32.6656 30.1524 33.8262Z" stroke="white" stroke-width="0.931153" stroke-linecap="round" stroke-linejoin="round"/>
<path d="M30.1522 35.8026H24.1924" stroke="white" stroke-width="0.931153"/>
</g>
<defs>
<filter id="filter0_d_3_5272" x="0" y="0" width="54" height="54" filterUnits="userSpaceOnUse" color-interpolation-filters="sRGB">
<feFlood flood-opacity="0" result="BackgroundImageFix"/>
<feColorMatrix in="SourceAlpha" type="matrix" values="0 0 0 0 0 0 0 0 0 0 0 0 0 0 0 0 0 0 127 0" result="hardAlpha"/>
<feOffset dy="1"/>
<feGaussianBlur stdDeviation="1"/>
<feComposite in2="hardAlpha" operator="out"/>
<feColorMatrix type="matrix" values="0 0 0 0 0 0 0 0 0 0 0 0 0 0 0 0 0 0 0.12 0"/>
<feBlend mode="normal" in2="BackgroundImageFix" result="effect1_dropShadow_3_5272"/>
<feBlend mode="normal" in="SourceGraphic" in2="effect1_dropShadow_3_5272" result="shape"/>
</filter>
</defs>
</svg>
