<svg width="144" height="52" viewBox="0 0 144 52" fill="none" xmlns="http://www.w3.org/2000/svg">
<g clip-path="url(#clip0_338_1442)">
<path d="M72.8736 14.2138H69.7943C69.1673 14.2138 68.6879 14.3798 68.4113 14.7301C68.1163 15.0805 67.9688 15.6521 67.9688 16.445V36.4145V38.6456H71.0481C71.675 38.6456 72.1545 38.4797 72.431 38.1293C72.7076 37.779 72.8736 37.2074 72.8736 36.4145V16.445V14.2138Z" fill="#05678E"/>
<path d="M69.7943 9.6594H72.8736V6.98573C72.8736 6.3588 72.7445 5.89782 72.5048 5.62124C72.2651 5.34465 71.841 5.21558 71.2325 5.21558H69.7943C69.1673 5.21558 68.6879 5.38153 68.4113 5.73187C68.1163 6.08222 67.9688 6.65383 67.9688 7.44671C67.9688 8.23959 68.1163 8.8112 68.4113 9.16154C68.7064 9.47501 69.1673 9.6594 69.7943 9.6594Z" fill="#05678E"/>
<path d="M111.153 14.2138H108.074C107.447 14.2138 106.967 14.3798 106.691 14.7301C106.396 15.0805 106.248 15.6521 106.248 16.445V36.4145V38.6456H109.328C109.954 38.6456 110.434 38.4797 110.71 38.1293C110.987 37.779 111.153 37.2074 111.153 36.4145V16.445V14.2138Z" fill="#05678E"/>
<path d="M108.074 9.6594H111.153V6.98573C111.153 6.3588 111.024 5.89782 110.784 5.62124C110.544 5.34465 110.12 5.21558 109.512 5.21558H108.074C107.447 5.21558 106.967 5.38153 106.691 5.73187C106.396 6.08222 106.248 6.65383 106.248 7.44671C106.248 8.23959 106.396 8.8112 106.691 9.16154C106.967 9.47501 107.428 9.6594 108.074 9.6594Z" fill="#05678E"/>
<path d="M102.542 24.9085C102.542 21.5157 101.528 18.8789 99.5182 17.0166C97.7665 15.3939 95.2219 14.4904 91.866 14.2692V14.2138H90.2249H89.0264H87.4037V14.2692C84.0478 14.4904 81.5032 15.3939 79.7515 17.0166C77.7232 18.8789 76.7275 21.5157 76.7275 24.9085V36.4145C76.7275 37.2074 76.875 37.779 77.17 38.1293C77.4651 38.4797 77.926 38.6456 78.553 38.6456H81.6323V36.4145H81.6876V24.9085C81.6876 22.9724 82.2592 21.4788 83.4209 20.4647C84.5826 19.4505 86.4449 18.9342 89.0448 18.9342H90.2434C92.8433 18.9342 94.7056 19.4505 95.8673 20.4647C97.0289 21.4788 97.6006 22.9724 97.6006 24.9085V36.4145H97.6559V38.6456H100.735C101.362 38.6456 101.842 38.4797 102.118 38.1293C102.413 37.779 102.561 37.2074 102.561 36.4145V24.9085H102.542Z" fill="#05678E"/>
<path d="M62.5109 17.2194C60.5932 15.1726 57.8089 14.14 54.2317 14.14H50.968C47.3908 14.14 44.6065 15.1726 42.6889 17.2194C40.845 19.1924 39.8677 22.1979 39.8124 26.1439C39.8124 26.1808 39.8124 26.1992 39.8124 26.2361V46.2056V48.4367H42.8917C43.5186 48.4367 43.998 48.2708 44.2746 47.9204C44.5696 47.5701 44.7172 46.9985 44.7172 46.2056V37.2627C46.3951 38.2215 48.4972 38.7193 50.9496 38.7193H54.2133C57.7905 38.7193 60.5748 37.6868 62.4924 35.6769C64.3917 33.667 65.3689 30.5693 65.3689 26.4758C65.3874 22.3823 64.4285 19.2661 62.5109 17.2194ZM59.0259 32.2103C58.0302 33.3536 56.426 33.9252 54.2317 33.9252H50.968C48.7369 33.9252 47.0958 33.3536 46.1185 32.2288C45.381 31.3621 44.9016 30.053 44.7172 28.3013V26.2545V24.6872C44.9016 22.917 45.381 21.5894 46.137 20.7044C47.1327 19.5427 48.7553 18.9711 50.968 18.9711H54.2317C56.4444 18.9711 58.0671 19.5611 59.0443 20.7044C60.04 21.866 60.5379 23.8206 60.5379 26.4758C60.5379 29.1126 60.0216 31.0487 59.0259 32.2103Z" fill="#05678E"/>
<path d="M117.275 17.2194C119.192 15.1726 121.977 14.14 125.554 14.14H128.817C132.395 14.14 135.179 15.1726 137.097 17.2194C138.94 19.1924 139.918 22.1979 139.973 26.1439C139.973 26.1808 139.973 26.1992 139.973 26.2361V37.5024V39.7335H136.875C136.248 39.7335 135.769 39.5675 135.492 39.2172C135.197 38.8669 135.05 38.2952 135.05 37.5024V37.2627C133.372 38.2215 131.27 38.7193 128.817 38.7193H125.554C121.977 38.7193 119.192 37.6868 117.275 35.6769C115.375 33.667 114.398 30.5693 114.398 26.4758C114.398 22.3823 115.375 19.2661 117.275 17.2194ZM120.76 32.2104C121.755 33.3536 123.359 33.9252 125.554 33.9252H128.817C131.049 33.9252 132.69 33.3536 133.667 32.2288C134.404 31.3621 134.884 30.053 135.068 28.3013V26.2545V24.6872C134.884 22.917 134.404 21.5894 133.648 20.7044C132.653 19.5427 131.03 18.9711 128.817 18.9711H125.554C123.341 18.9711 121.718 19.5611 120.741 20.7044C119.745 21.866 119.248 23.8206 119.248 26.4758C119.248 29.1126 119.764 31.0487 120.76 32.2104Z" fill="#05678E"/>
<path d="M117.275 35.5663C119.192 37.613 121.977 38.6456 125.554 38.6456H128.817C132.395 38.6456 135.179 37.613 137.097 35.5663C138.94 33.5933 139.918 30.5877 139.973 26.6418C139.973 26.6049 139.973 26.5865 139.973 26.5496V15.0436V12.8125H136.875C136.248 12.8125 135.769 12.9784 135.492 13.3288C135.197 13.6791 135.05 14.2507 135.05 15.0436V15.523C133.372 14.5642 131.27 14.0663 128.817 14.0663H125.554C121.977 14.0663 119.192 15.0989 117.275 17.1088C115.375 19.1186 114.398 22.2164 114.398 26.3099C114.398 30.4218 115.375 33.538 117.275 35.5663ZM120.76 20.5938C121.755 19.4505 123.359 18.8789 125.554 18.8789H128.817C131.049 18.8789 132.69 19.4505 133.667 20.5753C134.404 21.442 134.884 22.7511 135.068 24.5028V26.5496V28.1169C134.884 29.8871 134.404 31.2147 133.648 32.0998C132.653 33.2614 131.03 33.833 128.817 33.833H125.554C123.341 33.833 121.718 33.243 120.741 32.0998C119.745 30.9381 119.248 28.9835 119.248 26.3283C119.248 23.6731 119.764 21.7554 120.76 20.5938Z" fill="#05678E"/>
<path fill-rule="evenodd" clip-rule="evenodd" d="M3.84977 22.915V22.9247C3.84977 22.9441 3.84977 22.9635 3.84977 22.9829C3.84977 23.012 3.84977 23.0314 3.84977 23.0508V23.0605C3.84977 28.4615 5.10265 32.476 7.59871 35.1135C10.0948 37.751 13.698 39.0697 18.4085 39.0697H22.7984C27.5089 39.0697 31.1122 37.751 33.6082 35.1135C36.1043 32.476 37.3474 28.4615 37.3474 23.0605C37.3474 23.0314 37.3474 23.012 37.3474 22.9829C37.3474 22.9635 37.3474 22.9344 37.3474 22.915C37.3474 17.514 36.1043 13.4995 33.6082 10.862C31.1122 8.22454 27.5089 6.90579 22.7984 6.90579H18.4085C13.698 6.90579 10.0948 8.22454 7.59871 10.862C5.10265 13.4995 3.84977 17.514 3.84977 22.915ZM11.6099 30.9633C10.2016 29.3246 9.49261 26.6677 9.48289 22.9829C9.49261 19.3079 10.2016 16.651 11.6099 15.0025C13.0182 13.3541 15.2908 12.5299 18.4085 12.5299H22.7984C23.1869 12.5299 23.556 12.5396 23.9153 12.5687C24.9934 12.6462 25.9452 12.8305 26.7902 13.1408C27.9362 13.548 28.8686 14.1686 29.5776 15.0025C29.7524 15.2159 29.9175 15.4486 30.0729 15.691C30.1895 15.8655 30.2963 16.0595 30.3934 16.2534C30.4226 16.3019 30.4517 16.3504 30.4711 16.3989C30.5586 16.5734 30.646 16.7576 30.7139 16.9516C30.7528 17.0388 30.7916 17.1261 30.8208 17.2134C30.8888 17.3879 30.947 17.5722 31.0053 17.7661C31.0442 17.8728 31.0733 17.9891 31.1024 18.1055C31.1413 18.2218 31.1704 18.3479 31.1996 18.4739C31.2481 18.6582 31.287 18.8521 31.3258 19.0461C31.355 19.1721 31.3744 19.3079 31.4035 19.4339C31.4229 19.5697 31.4424 19.7054 31.4715 19.8509C31.5006 20.0642 31.5298 20.2872 31.5492 20.52C31.5589 20.646 31.5783 20.7818 31.5881 20.9175C31.6075 21.1793 31.6269 21.4314 31.6366 21.7029C31.6463 21.7999 31.6463 21.8969 31.656 21.9938C31.6658 22.2944 31.6755 22.595 31.6755 22.9053C31.6755 22.9247 31.6755 22.9538 31.6755 22.9829C31.6755 23.012 31.6755 23.0411 31.6755 23.0702C31.6755 23.3805 31.6658 23.6811 31.656 23.972C31.6463 24.0786 31.6463 24.1756 31.6366 24.2726C31.6269 24.5441 31.6075 24.7962 31.5881 25.0483C31.5783 25.1841 31.5589 25.3198 31.5492 25.4556C31.5298 25.6786 31.5006 25.9016 31.4715 26.1246C31.4424 26.2604 31.4229 26.3961 31.4035 26.5319C31.3744 26.6677 31.355 26.7937 31.3258 26.9198C31.287 27.1234 31.2481 27.3076 31.1996 27.4919C31.1704 27.6179 31.1413 27.744 31.1024 27.87C31.0733 27.9864 31.0442 28.1028 31.0053 28.2094C30.947 28.4034 30.8888 28.5779 30.8208 28.7621C30.7916 28.83 30.7625 28.9076 30.7334 28.9755V32.5729H27.4215C27.2175 32.6602 27.0136 32.7572 26.7902 32.8348C25.9452 33.1354 24.9934 33.3293 23.9153 33.4069C23.556 33.4359 23.1869 33.4456 22.7984 33.4456H18.4085C15.2908 33.4456 13.0182 32.6214 11.6099 30.9633Z" fill="url(#paint0_linear_338_1442)"/>
<path d="M16.3894 21.3835H14.4372C14.0487 21.3835 13.7282 21.7035 13.7282 22.101V24.0501C13.7282 24.4379 14.0487 24.7579 14.4372 24.7579H16.3894C16.7876 24.7579 17.0984 24.4379 17.0984 24.0501V22.101C17.0984 21.7035 16.7876 21.3835 16.3894 21.3835Z" fill="#05B1A1"/>
<path d="M21.2925 21.3835H19.3403C18.9518 21.3835 18.6313 21.7035 18.6313 22.101V24.0501C18.6313 24.4379 18.9518 24.7579 19.3403 24.7579H21.2925C21.6907 24.7579 22.0112 24.4379 22.0112 24.0501V22.101C22.0112 21.7035 21.6907 21.3835 21.2925 21.3835Z" fill="#05B1A1"/>
<path d="M26.3058 21.3835H24.3536C23.9554 21.3835 23.6349 21.7035 23.6349 22.101V24.0501C23.6349 24.4379 23.9554 24.7579 24.3536 24.7579H26.3058C26.6943 24.7579 27.0148 24.4379 27.0148 24.0501V22.101C27.0148 21.7035 26.6943 21.3835 26.3058 21.3835Z" fill="#05B1A1"/>
<path fill-rule="evenodd" clip-rule="evenodd" d="M3.84977 22.915V22.9247C3.84977 22.9441 3.84977 22.9635 3.84977 22.9829C3.84977 23.012 3.84977 23.0314 3.84977 23.0508V23.0605C3.84977 28.4615 5.10265 32.476 7.59871 35.1135C10.0948 37.751 13.698 39.0697 18.4085 39.0697H22.7984C27.5089 39.0697 31.1122 37.751 33.6082 35.1135C36.1043 32.476 37.3474 28.4615 37.3474 23.0605C37.3474 23.0314 37.3474 23.012 37.3474 22.9829C37.3474 22.9635 37.3474 22.9344 37.3474 22.915C37.3474 17.514 36.1043 13.4995 33.6082 10.862C31.1122 8.22454 27.5089 6.90579 22.7984 6.90579H18.4085C13.698 6.90579 10.0948 8.22454 7.59871 10.862C5.10265 13.4995 3.84977 17.514 3.84977 22.915ZM11.6099 30.9633C10.2016 29.3246 9.49261 26.6677 9.48289 22.9829C9.49261 19.3079 10.2016 16.651 11.6099 15.0025C13.0182 13.3541 15.2908 12.5299 18.4085 12.5299H22.7984C23.1869 12.5299 23.556 12.5396 23.9153 12.5687C24.9934 12.6462 25.9452 12.8305 26.7902 13.1408C27.9362 13.548 28.8686 14.1686 29.5776 15.0025C29.7524 15.2159 29.9175 15.4486 30.0729 15.691C30.1895 15.8655 30.2963 16.0595 30.3934 16.2534C30.4226 16.3019 30.4517 16.3504 30.4711 16.3989C30.5586 16.5734 30.646 16.7576 30.7139 16.9516C30.7528 17.0388 30.7916 17.1261 30.8208 17.2134C30.8888 17.3879 30.947 17.5722 31.0053 17.7661C31.0442 17.8728 31.0733 17.9891 31.1024 18.1055C31.1413 18.2218 31.1704 18.3479 31.1996 18.4739C31.2481 18.6582 31.287 18.8521 31.3258 19.0461C31.355 19.1721 31.3744 19.3079 31.4035 19.4339C31.4229 19.5697 31.4424 19.7054 31.4715 19.8509C31.5006 20.0642 31.5298 20.2872 31.5492 20.52C31.5589 20.646 31.5783 20.7818 31.5881 20.9175C31.6075 21.1793 31.6269 21.4314 31.6366 21.7029C31.6463 21.7999 31.6463 21.8969 31.656 21.9938C31.6658 22.2944 31.6755 22.595 31.6755 22.9053C31.6755 22.9247 31.6755 22.9538 31.6755 22.9829C31.6755 23.012 31.6755 23.0411 31.6755 23.0702C31.6755 23.3805 31.6658 23.6811 31.656 23.972C31.6463 24.0786 31.6463 24.1756 31.6366 24.2726C31.6269 24.5441 31.6075 24.7962 31.5881 25.0483C31.5783 25.1841 31.5589 25.3198 31.5492 25.4556C31.5298 25.6786 31.5006 25.9016 31.4715 26.1246C31.4424 26.2604 31.4229 26.3961 31.4035 26.5319C31.3744 26.6677 31.355 26.7937 31.3258 26.9198C31.287 27.1234 31.2481 27.3076 31.1996 27.4919C31.1704 27.6179 31.1413 27.744 31.1024 27.87C31.0733 27.9864 31.0442 28.1028 31.0053 28.2094C30.947 28.4034 30.8888 28.5779 30.8208 28.7621C30.7916 28.83 30.7625 28.9076 30.7334 28.9755V32.5729H27.4215C27.2175 32.6602 27.0136 32.7572 26.7902 32.8348C25.9452 33.1354 24.9934 33.3293 23.9153 33.4069C23.556 33.4359 23.1869 33.4456 22.7984 33.4456H18.4085C15.2908 33.4456 13.0182 32.6214 11.6099 30.9633Z" fill="url(#paint1_linear_338_1442)"/>
<path d="M16.3894 21.3835H14.4372C14.0487 21.3835 13.7282 21.7035 13.7282 22.101V24.0501C13.7282 24.4379 14.0487 24.7579 14.4372 24.7579H16.3894C16.7876 24.7579 17.0984 24.4379 17.0984 24.0501V22.101C17.0984 21.7035 16.7876 21.3835 16.3894 21.3835Z" fill="#05B1A1"/>
<path d="M21.2925 21.3835H19.3403C18.9518 21.3835 18.6313 21.7035 18.6313 22.101V24.0501C18.6313 24.4379 18.9518 24.7579 19.3403 24.7579H21.2925C21.6907 24.7579 22.0112 24.4379 22.0112 24.0501V22.101C22.0112 21.7035 21.6907 21.3835 21.2925 21.3835Z" fill="#05B1A1"/>
<path d="M26.3058 21.3835H24.3536C23.9554 21.3835 23.6349 21.7035 23.6349 22.101V24.0501C23.6349 24.4379 23.9554 24.7579 24.3536 24.7579H26.3058C26.6943 24.7579 27.0148 24.4379 27.0148 24.0501V22.101C27.0148 21.7035 26.6943 21.3835 26.3058 21.3835Z" fill="#05B1A1"/>
</g>
<defs>
<linearGradient id="paint0_linear_338_1442" x1="3.84977" y1="22.9878" x2="37.3474" y2="22.9878" gradientUnits="userSpaceOnUse">
<stop stop-color="#05B1A1"/>
<stop offset="1" stop-color="#05678E"/>
</linearGradient>
<linearGradient id="paint1_linear_338_1442" x1="3.84977" y1="22.9878" x2="37.3474" y2="22.9878" gradientUnits="userSpaceOnUse">
<stop stop-color="#05B1A1"/>
<stop offset="1" stop-color="#05678E"/>
</linearGradient>
<clipPath id="clip0_338_1442">
<rect width="143" height="51.3004" fill="white" transform="translate(0.5 0.349762)"/>
</clipPath>
</defs>
</svg>
