<svg width="54" height="54" viewBox="0 0 54 54" fill="none" xmlns="http://www.w3.org/2000/svg">
<g filter="url(#filter0_d_3_5281)">
<rect x="2" y="1" width="50" height="50" rx="25" fill="#05B1A1" shape-rendering="crispEdges"/>
<path d="M38.0302 29.9357H33.5869V22.027C33.5869 21.6029 33.4284 21.1963 33.1463 20.8964C32.8641 20.5966 32.4815 20.4282 32.0825 20.4282H27.6743V15.0988C27.6743 14.6748 27.5158 14.2681 27.2336 13.9683C26.9515 13.6685 26.5688 13.5 26.1698 13.5H21.5611C21.162 13.5 20.7794 13.6685 20.4972 13.9683C20.2151 14.2681 20.0566 14.6748 20.0566 15.0988V17.9127H16.0045C15.6055 17.9127 15.2228 18.0812 14.9407 18.381C14.6585 18.6808 14.5 19.0875 14.5 19.5115V38.5H39.4996V31.5718C39.5042 31.3619 39.4699 31.153 39.3986 30.9571C39.3273 30.7612 39.2203 30.5822 39.0839 30.4303C38.9474 30.2783 38.7841 30.1564 38.6033 30.0716C38.4225 29.9867 38.2278 29.9406 38.0302 29.9357ZM38.4665 31.5345V37.3968H33.5869V31.0442H38.0302C38.145 31.047 38.2542 31.0978 38.334 31.1856C38.4138 31.2734 38.4578 31.3911 38.4565 31.5132L38.4665 31.5345ZM32.5438 22.027V37.3329H27.6743V21.558H32.1025C32.1607 21.5573 32.2183 21.5689 32.2722 21.5922C32.326 21.6155 32.375 21.6501 32.4161 21.6938C32.4572 21.7374 32.4897 21.7894 32.5116 21.8466C32.5335 21.9039 32.5445 21.9652 32.5438 22.027ZM26.6312 15.0988V37.3702H21.1147V15.0988C21.1147 14.9744 21.1612 14.8551 21.244 14.7672C21.3268 14.6792 21.439 14.6298 21.5561 14.6298H26.1849C26.2434 14.6284 26.3016 14.6395 26.3561 14.6625C26.4105 14.6855 26.46 14.7199 26.5017 14.7637C26.5433 14.8074 26.5763 14.8597 26.5985 14.9172C26.6208 14.9748 26.6319 15.0366 26.6312 15.0988ZM20.0766 19.0052V37.3542H15.5632V19.4742C15.5625 19.4124 15.5735 19.3511 15.5954 19.2939C15.6173 19.2367 15.6498 19.1847 15.6909 19.141C15.732 19.0973 15.781 19.0628 15.8348 19.0395C15.8887 19.0162 15.9463 19.0045 16.0045 19.0052H20.0766Z" fill="white"/>
</g>
<defs>
<filter id="filter0_d_3_5281" x="0" y="0" width="54" height="54" filterUnits="userSpaceOnUse" color-interpolation-filters="sRGB">
<feFlood flood-opacity="0" result="BackgroundImageFix"/>
<feColorMatrix in="SourceAlpha" type="matrix" values="0 0 0 0 0 0 0 0 0 0 0 0 0 0 0 0 0 0 127 0" result="hardAlpha"/>
<feOffset dy="1"/>
<feGaussianBlur stdDeviation="1"/>
<feComposite in2="hardAlpha" operator="out"/>
<feColorMatrix type="matrix" values="0 0 0 0 0 0 0 0 0 0 0 0 0 0 0 0 0 0 0.12 0"/>
<feBlend mode="normal" in2="BackgroundImageFix" result="effect1_dropShadow_3_5281"/>
<feBlend mode="normal" in="SourceGraphic" in2="effect1_dropShadow_3_5281" result="shape"/>
</filter>
</defs>
</svg>
